# xmcd
# Track frame offsets:
# 150
# 15620
# 31774
# 49480
# 75747
# 94447
# 111881
# 130001
# 146113
#
# Disc length: 2280 seconds
# Revision: 0
# Processed by: cddbd v1.5PL3 Copyright (c) Steve Scherf et al.
# Submitted via: VisiTrax 2.9.8.200 - For more info visit www.synapsa.com
#
DISCID=7708e609
DTITLE=Lone Kellermann og Rockbandet - Tilfældigt forbi
DYEAR=1900
DGENRE=Rock
TTITLE0=Boogie Bar
TTITLE1=Den allersidste vals
TTITLE2=Barn af fede tider
TTITLE3=Midnats Blues
TTITLE4=Ved frokosten
TTITLE5=Ud over grænsen
TTITLE6=Lyngbyvej
TTITLE7=Fri fantasi
TTITLE8=Kate
EXTD=
EXTT0=
EXTT1=
EXTT2=
EXTT3=
EXTT4=
EXTT5=
EXTT6=
EXTT7=
EXTT8=
PLAYORDER=
